<svg width="241" height="35" viewBox="0 0 241 35" fill="none" xmlns="http://www.w3.org/2000/svg">
<path d="M0.466563 26V1.52H3.34656V13.004H5.65056L12.9586 1.52H16.1626L8.81856 13.04C10.0186 13.136 10.9186 13.484 11.5186 14.084C12.1186 14.684 12.6466 15.536 13.1026 16.64L16.5226 25.712L13.7866 26.576L10.2226 17.144C9.93456 16.28 9.56256 15.776 9.10656 15.632C8.89056 15.56 8.62656 15.524 8.31456 15.524H3.34656V26H0.466563ZM26.1267 26.504C23.9667 26.504 22.1787 25.748 20.7627 24.236C19.3707 22.724 18.6747 20.504 18.6747 17.576C18.6747 14.648 19.5027 12.236 21.1587 10.34C22.8147 8.444 24.9627 7.496 27.6027 7.496C29.2827 7.496 30.6387 8.012 31.6707 9.044C32.7027 10.052 33.2187 11.324 33.2187 12.86C33.2187 14.372 32.4267 15.764 30.8427 17.036C29.2827 18.308 27.0027 18.944 24.0027 18.944C23.2107 18.944 22.3707 18.908 21.4827 18.836C21.6507 20.54 22.1667 21.836 23.0307 22.724C23.9187 23.612 24.9867 24.056 26.2347 24.056C28.3227 24.056 30.0627 23.408 31.4547 22.112L32.7507 23.876C30.9267 25.628 28.7187 26.504 26.1267 26.504ZM27.4947 9.944C25.8387 9.944 24.4587 10.532 23.3547 11.708C22.2747 12.884 21.6387 14.444 21.4467 16.388C22.2387 16.508 23.1147 16.568 24.0747 16.568C26.1387 16.568 27.7227 16.184 28.8267 15.416C29.9307 14.648 30.4827 13.76 30.4827 12.752C30.4827 12.008 30.2067 11.36 29.6547 10.808C29.1267 10.232 28.4067 9.944 27.4947 9.944ZM37.1922 0.799998H39.9282V22.04C39.9282 23.36 40.4682 24.02 41.5482 24.02C42.2442 24.02 42.9282 23.78 43.6002 23.3L44.6802 25.244C43.3602 26.084 42.1122 26.504 40.9362 26.504C39.7602 26.504 38.8362 26.18 38.1642 25.532C37.5162 24.884 37.1922 23.72 37.1922 22.04V0.799998ZM47.0812 8L52.4812 22.868L57.8452 8H60.7612L54.0652 26H50.8252L44.1292 8H47.0812ZM64.2417 4.076C63.9537 3.74 63.8097 3.32 63.8097 2.816C63.8097 2.312 63.9537 1.904 64.2417 1.592C64.5297 1.256 64.9497 1.088 65.5017 1.088C66.0537 1.088 66.4857 1.256 66.7977 1.592C67.1097 1.928 67.2657 2.336 67.2657 2.816C67.2657 3.296 67.1097 3.704 66.7977 4.04C66.4857 4.376 66.0537 4.544 65.5017 4.544C64.9497 4.544 64.5297 4.388 64.2417 4.076ZM64.1697 26V8H66.9057V26H64.1697ZM82.0206 7.496C85.9566 7.496 87.9246 10.016 87.9246 15.056V26H85.1886V15.056C85.1886 11.648 83.9766 9.944 81.5526 9.944C80.1606 9.944 78.8886 10.664 77.7366 12.104C76.6086 13.544 76.0086 15.524 75.9366 18.044V26H73.2006V11.6L72.8406 8L75.2166 7.82L75.9006 11.528C76.6446 10.232 77.5686 9.236 78.6726 8.54C79.7766 7.844 80.8926 7.496 82.0206 7.496ZM102.877 26V1.52H105.757V12.428H117.421V1.52H120.301V26H117.421V15.092H105.757V26H102.877ZM132.615 26.504C130.455 26.504 128.667 25.748 127.251 24.236C125.859 22.724 125.163 20.504 125.163 17.576C125.163 14.648 125.991 12.236 127.647 10.34C129.303 8.444 131.451 7.496 134.091 7.496C135.771 7.496 137.127 8.012 138.159 9.044C139.191 10.052 139.707 11.324 139.707 12.86C139.707 14.372 138.915 15.764 137.331 17.036C135.771 18.308 133.491 18.944 130.491 18.944C129.699 18.944 128.859 18.908 127.971 18.836C128.139 20.54 128.655 21.836 129.519 22.724C130.407 23.612 131.475 24.056 132.723 24.056C134.811 24.056 136.551 23.408 137.943 22.112L139.239 23.876C137.415 25.628 135.207 26.504 132.615 26.504ZM133.983 9.944C132.327 9.944 130.947 10.532 129.843 11.708C128.763 12.884 128.127 14.444 127.935 16.388C128.727 16.508 129.603 16.568 130.563 16.568C132.627 16.568 134.211 16.184 135.315 15.416C136.419 14.648 136.971 13.76 136.971 12.752C136.971 12.008 136.695 11.36 136.143 10.808C135.615 10.232 134.895 9.944 133.983 9.944ZM152.86 7.496C156.796 7.496 158.764 10.016 158.764 15.056V26H156.028V15.056C156.028 11.648 154.816 9.944 152.392 9.944C151 9.944 149.728 10.664 148.576 12.104C147.448 13.544 146.848 15.524 146.776 18.044V26H144.04V11.6L143.68 8L146.056 7.82L146.74 11.528C147.484 10.232 148.408 9.236 149.512 8.54C150.616 7.844 151.732 7.496 152.86 7.496ZM167.273 26H164.537V11.6L164.177 8L166.553 7.82L167.273 12.14C167.993 10.652 168.905 9.524 170.009 8.756C171.113 7.988 172.313 7.604 173.609 7.604L173.789 10.34C169.565 10.676 167.393 13.904 167.273 20.024V26ZM177.445 4.076C177.157 3.74 177.013 3.32 177.013 2.816C177.013 2.312 177.157 1.904 177.445 1.592C177.733 1.256 178.153 1.088 178.705 1.088C179.257 1.088 179.689 1.256 180.001 1.592C180.313 1.928 180.469 2.336 180.469 2.816C180.469 3.296 180.313 3.704 180.001 4.04C179.689 4.376 179.257 4.544 178.705 4.544C178.153 4.544 177.733 4.388 177.445 4.076ZM177.373 26V8H180.109V26H177.373ZM200.588 34.1H197.852V23.192C196.532 25.424 194.588 26.54 192.02 26.54C190.004 26.54 188.348 25.76 187.052 24.2C185.78 22.64 185.144 20.396 185.144 17.468C185.144 14.516 185.972 12.128 187.628 10.304C189.308 8.456 191.372 7.532 193.82 7.532C196.292 7.532 198.548 8.24 200.588 9.656V34.1ZM192.02 24.092C193.676 24.092 195.056 23.36 196.16 21.896C197.288 20.408 197.852 18.308 197.852 15.596V10.844C196.748 10.268 195.38 9.98 193.748 9.98C192.14 9.98 190.76 10.676 189.608 12.068C188.456 13.436 187.88 15.212 187.88 17.396C187.88 19.556 188.264 21.212 189.032 22.364C189.824 23.516 190.82 24.092 192.02 24.092ZM206.54 8H209.276V18.944C209.276 22.352 210.488 24.056 212.912 24.056C214.304 24.056 215.564 23.348 216.692 21.932C217.844 20.492 218.456 18.512 218.528 15.992V8H221.264V22.4L221.624 26L219.248 26.18L218.528 22.472C217.808 23.768 216.896 24.764 215.792 25.46C214.688 26.156 213.572 26.504 212.444 26.504C208.508 26.504 206.54 23.984 206.54 18.944V8ZM233.408 26.504C231.248 26.504 229.46 25.748 228.044 24.236C226.652 22.724 225.956 20.504 225.956 17.576C225.956 14.648 226.784 12.236 228.44 10.34C230.096 8.444 232.244 7.496 234.884 7.496C236.564 7.496 237.92 8.012 238.952 9.044C239.984 10.052 240.5 11.324 240.5 12.86C240.5 14.372 239.708 15.764 238.124 17.036C236.564 18.308 234.284 18.944 231.284 18.944C230.492 18.944 229.652 18.908 228.764 18.836C228.932 20.54 229.448 21.836 230.312 22.724C231.2 23.612 232.268 24.056 233.516 24.056C235.604 24.056 237.344 23.408 238.736 22.112L240.032 23.876C238.208 25.628 236 26.504 233.408 26.504ZM234.776 9.944C233.12 9.944 231.74 10.532 230.636 11.708C229.556 12.884 228.92 14.444 228.728 16.388C229.52 16.508 230.396 16.568 231.356 16.568C233.42 16.568 235.004 16.184 236.108 15.416C237.212 14.648 237.764 13.76 237.764 12.752C237.764 12.008 237.488 11.36 236.936 10.808C236.408 10.232 235.688 9.944 234.776 9.944Z" fill="#56CCF2"/>
</svg>
